<svg height='100px' width='100px'  fill="#848484" xmlns="http://www.w3.org/2000/svg" xmlns:xlink="http://www.w3.org/1999/xlink" version="1.1" x="0px" y="0px" viewBox="0 0 100 100" enable-background="new 0 0 100 100" xml:space="preserve"><g><path d="M74.349,31.961c-0.795,0-1.589,0.047-2.375,0.138C69.111,21.03,59.053,13.163,47.438,13.163   c-13.977,0-25.349,11.371-25.349,25.349c0,0.237,0.004,0.474,0.01,0.711h-0.077C12.637,39.223,5,46.86,5,56.246   c0,9.383,7.637,17.016,17.023,17.016h15.303c0.965,0,1.747-0.782,1.747-1.747c0-0.965-0.782-1.747-1.747-1.747H22.024   c-7.46,0-13.529-6.065-13.529-13.522c0-7.459,6.069-13.528,13.529-13.528h1.943c0.495,0,0.967-0.21,1.299-0.579   c0.332-0.368,0.491-0.859,0.439-1.352c-0.079-0.751-0.119-1.517-0.119-2.276c0-12.051,9.804-21.855,21.854-21.855   c10.507,0,19.538,7.465,21.472,17.749c0.086,0.46,0.354,0.866,0.743,1.127c0.389,0.262,0.867,0.355,1.325,0.261   c1.099-0.225,2.234-0.339,3.371-0.339c9.46,0,17.157,7.693,17.157,17.15c0,4.813-2.056,9.443-5.641,12.705   c-0.043,0.039-0.083,0.079-0.122,0.122c-2.45,2.716-6.148,4.337-9.892,4.337H61.924c-0.965,0-1.747,0.782-1.747,1.747   c0,0.965,0.782,1.747,1.747,1.747h13.927c4.758,0,9.283-1.977,12.429-5.426C92.552,63.917,95,58.371,95,52.605   C95,41.222,85.736,31.961,74.349,31.961z"></path><path d="M70.389,56.743c0.541,0,1.074-0.25,1.416-0.721c0.567-0.781,0.394-1.873-0.387-2.44l-20.39-14.804   c-0.07-0.051-0.15-0.075-0.224-0.114c-0.063-0.033-0.12-0.07-0.188-0.096c-0.398-0.151-0.831-0.151-1.228,0   c-0.067,0.026-0.125,0.062-0.188,0.095c-0.075,0.039-0.155,0.063-0.225,0.114l-20.39,14.804c-0.781,0.567-0.954,1.66-0.387,2.44   c0.566,0.781,1.659,0.956,2.44,0.388l17.617-12.791V85.09c0,0.965,0.782,1.747,1.747,1.747c0.965,0,1.747-0.782,1.747-1.747V43.619   L69.364,56.41C69.674,56.635,70.033,56.743,70.389,56.743z"></path></g></svg>